<svg width="20" height="20" viewBox="0 0 20 20" fill="none" xmlns="http://www.w3.org/2000/svg">
<path d="M18.1806 1.88441H12.8052V0.935742C12.8052 0.419766 12.386 0 11.8708 0H8.12922C7.61399 0 7.19485 0.419766 7.19485 0.935742V1.88438H1.81942C1.55946 1.88438 1.34875 2.09508 1.34875 2.35504C1.34875 2.615 1.55946 2.8257 1.81942 2.8257H2.69176L3.28661 18.3099C3.32301 19.2576 4.09446 20 5.04293 20H14.9571C15.9056 20 16.6771 19.2576 16.7134 18.3099L17.3082 2.82566H18.1806C18.4405 2.82566 18.6512 2.61496 18.6512 2.355C18.6512 2.09512 18.4405 1.88441 18.1806 1.88441ZM8.13614 0.941289H11.8639V1.88438H8.13614V0.941289ZM15.7728 18.2738C15.7559 18.7139 15.3976 19.0587 14.9571 19.0587H5.04293C4.60246 19.0587 4.24418 18.7139 4.22723 18.2738L3.63379 2.8257H16.3663L15.7728 18.2738Z" fill="#969696"/>
<path d="M7.134 7.09258C7.12904 6.83575 6.91939 6.63098 6.66361 6.63098C6.66056 6.63098 6.65744 6.63098 6.65439 6.63106C6.39455 6.63606 6.18787 6.85083 6.19287 7.11067L6.34056 14.7917C6.34549 15.0485 6.55521 15.2533 6.81095 15.2533C6.814 15.2533 6.81713 15.2533 6.82017 15.2532C7.08006 15.2482 7.2867 15.0335 7.2817 14.7736L7.134 7.09258Z" fill="#969696"/>
<path d="M9.99993 6.63098C9.74001 6.63098 9.52927 6.84168 9.52927 7.10165V14.7827C9.52927 15.0426 9.73997 15.2533 9.99993 15.2533C10.2599 15.2533 10.4706 15.0426 10.4706 14.7827V7.10165C10.4706 6.84172 10.2599 6.63098 9.99993 6.63098Z" fill="#969696"/>
<path d="M13.3455 6.6311C13.0866 6.62536 12.8709 6.83274 12.8659 7.09262L12.7182 14.7736C12.7132 15.0335 12.9198 15.2482 13.1797 15.2532C13.1828 15.2533 13.1859 15.2533 13.1889 15.2533C13.4446 15.2533 13.6544 15.0485 13.6593 14.7917L13.807 7.11071C13.812 6.85079 13.6054 6.63606 13.3455 6.6311Z" fill="#969696"/>
</svg>
