<svg width="20" height="22" viewBox="0 0 20 22" fill="none" xmlns="http://www.w3.org/2000/svg">
<path d="M19.2995 20.791L13.9385 14.8262C15.3059 13.3591 16.153 11.3365 16.153 9.10583C16.153 4.63604 12.7544 1 8.57652 1C4.39861 1 1 4.63604 1 9.10583C1 13.5756 4.39861 17.2117 8.57652 17.2117C10.4104 17.2117 12.0935 16.5103 13.4053 15.3465L18.7792 21.3259C18.8499 21.4051 18.9444 21.4444 19.0393 21.4444C19.1295 21.4444 19.2194 21.4086 19.2894 21.3368C19.4329 21.1889 19.4373 20.9446 19.2995 20.791ZM8.57652 16.4397C4.79656 16.4397 1.72157 13.1499 1.72157 9.10583C1.72157 5.06179 4.79656 1.77198 8.57652 1.77198C12.3565 1.77198 15.4315 5.06179 15.4315 9.10583C15.4315 13.1499 12.3561 16.4397 8.57652 16.4397Z" fill="#565656" stroke="#969696" stroke-width="0.5"/>
</svg>
