<svg width="143" height="28" viewBox="0 0 143 28" fill="none" xmlns="http://www.w3.org/2000/svg">
<path d="M48.6406 16.1175L48.0039 18.0754H54.6964L53.6895 21.1655H42.8864L47.0421 8.47992H57.5808L56.5867 11.5142H50.145L49.6014 13.2067H55.0304L54.0715 16.1175H48.6406ZM29.5847 19.7228L33.6533 23.7914L29.5847 27.8639L25.5142 23.7914L25.5181 23.7894L15.8071 14.0764L15.8188 14.0666L15.811 14.0588L21.4251 8.27523L18.1381 5.08815L9.3046 14.1978L18.2733 23.1685L21.5975 19.8423L25.6641 23.9128L21.5749 28L17.572 23.9951L13.7757 27.7933L9.70911 23.7248L9.71498 23.7209L0 14.0078L0.0117527 13.9961L0.00783564 13.9922L9.57199 4.13615L9.56611 4.12831L13.573 0L17.6934 4.00098L21.3722 0.208619L25.4251 4.14202L29.38 0.067581L33.5083 4.07836L29.5015 8.20666L26.1469 4.95005L17.3075 14.0598L26.2782 23.0284L29.5847 19.7228ZM13.6885 8.13125L10.3418 4.88345L1.50245 13.9892L10.4731 22.9579L13.5093 19.9256L7.80313 14.2135L7.81097 14.2057L7.80313 14.1998L13.6885 8.13125ZM63.9657 8.47992H59.8707L55.713 21.1655H65.7542L66.856 17.7953H60.9119L63.9657 8.47992ZM45.5348 8.47992H33.1822L32.0882 11.8139H36.2782L33.2106 21.1665H37.3115L40.3732 11.8139H44.4378L45.5348 8.47992ZM106.405 8.47992L104.449 14.4584C104.263 15.0274 104.14 15.5289 104.071 15.9785L104.04 16.191L103.82 15.2008C103.8 15.0597 103.788 14.9167 103.778 14.7708C103.762 14.6219 103.739 14.4907 103.696 14.3732L101.922 8.47992H98.0323L93.8766 21.1655H97.762L99.6983 15.2204C99.8756 14.6797 99.999 14.1743 100.072 13.7003L100.107 13.4917C100.161 13.7346 100.207 13.9647 100.249 14.1783C100.372 14.8962 100.442 15.2723 100.446 15.3066L102.248 21.1655H106.133L110.292 8.47992H106.405ZM138.709 21.1665L138.733 19.4907H133.979L132.891 21.1665H129.554L129.322 20.5485L137.899 8.4809H142.051L142.772 21.1665H138.709ZM138.806 16.8217L138.679 12.431L135.681 16.8217H138.806ZM133.072 8.47992H128.142L122.408 12.6778L123.783 8.47992H119.732L115.576 21.1655H119.619L120.947 17.1244L122.652 16.0833L124.516 21.1665H128.883L129.322 20.5485L126.541 13.1547L133.072 8.47992ZM94.239 14.1077C94.193 14.2752 94.1195 14.5171 94.0079 14.8315C93.3213 16.8903 92.1792 18.5162 90.6014 19.7101C89.0235 20.9021 87.1949 21.4985 85.1117 21.4985C83.3291 21.4985 82.0059 21.0372 81.1489 20.1117C80.2889 19.193 79.9834 17.9256 80.2312 16.3154C80.2929 15.8913 80.4163 15.3947 80.6014 14.8315C81.2762 12.808 82.4153 11.189 84.0235 9.96866C85.6249 8.7571 87.4535 8.14594 89.4985 8.14594C91.285 8.14594 92.6082 8.60333 93.4652 9.5142C94.3291 10.4221 94.6337 11.6856 94.3869 13.2948C94.3281 13.6719 94.2782 13.9412 94.239 14.1077ZM90.2076 13.5945C90.3115 12.9001 90.2537 12.3732 90.0225 12.0069C89.7483 11.5632 89.2272 11.3369 88.4603 11.3369C87.4887 11.3369 86.6817 11.6876 86.0255 12.3977C85.5162 12.9608 85.0842 13.7708 84.7297 14.8306C84.6641 15.0313 84.6024 15.236 84.5485 15.4476C84.4946 15.6601 84.4486 15.8658 84.4212 16.0646C84.3134 16.7591 84.3712 17.288 84.6024 17.6543C84.8766 18.0979 85.4016 18.3222 86.1685 18.3222C87.1254 18.3222 87.9275 17.9726 88.5798 17.2693C89.1048 16.7023 89.5407 15.8903 89.8913 14.8306C90.0529 14.3389 90.1577 13.9265 90.2076 13.5945ZM112.922 8.47992L108.762 21.1655H112.952L117.112 8.47992H112.922ZM81.762 8.47992H69.4153L68.3164 11.8139H72.5064L69.4408 21.1665H73.5426L76.6043 11.8139H80.667L81.762 8.47992Z" fill="white"/>
</svg>
